<svg width="37" height="41" viewBox="0 0 37 41" fill="none" xmlns="http://www.w3.org/2000/svg">
<path fill-rule="evenodd" clip-rule="evenodd" d="M5.15405 3.89132C3.72339 4.89168 2.42969 6.07443 1.30664 7.40585C5.89594 6.97978 11.7265 7.6755 18.4957 11.0601C25.7243 14.6743 31.5451 14.7965 35.5961 14.0151C35.2285 12.9022 34.7657 11.8326 34.2176 10.8158C29.5803 11.3049 23.6353 10.6575 16.7069 7.19343C12.3073 4.99363 8.42908 4.08746 5.15405 3.89132ZM31.5087 6.9601C27.8466 2.86845 22.5247 0.293457 16.6013 0.293457C14.8618 0.293457 13.174 0.515564 11.565 0.932937C13.7442 1.52754 16.0592 2.39744 18.4957 3.61572C23.5683 6.15198 27.9477 6.96861 31.5087 6.9601ZM36.4622 17.9215C31.5682 18.8879 24.8101 18.6894 16.7069 14.6378C9.13128 10.85 3.10175 10.8977 -0.964782 11.8014C-1.17468 11.848 -1.37964 11.897 -1.57965 11.948C-2.11206 13.1059 -2.53705 14.3235 -2.84198 15.5879C-2.5163 15.5009 -2.17975 15.4182 -1.83252 15.341C3.10089 14.2447 10.0714 14.2923 18.4957 18.5045C26.0714 22.2923 32.1009 22.2446 36.1675 21.3409C36.3068 21.31 36.4441 21.278 36.5791 21.245C36.5939 20.9297 36.6013 20.6124 36.6013 20.2934C36.6013 19.4909 36.5541 18.6994 36.4622 17.9215ZM35.9261 25.4657C31.0796 26.313 24.5183 25.9878 16.7069 22.0822C9.13128 18.2944 3.10175 18.3421 -0.964782 19.2458C-1.86743 19.4463 -2.67944 19.6906 -3.39575 19.9485C-3.3977 20.0632 -3.39868 20.1782 -3.39868 20.2934C-3.39868 31.3391 5.55561 40.2934 16.6013 40.2934C25.8584 40.2934 33.6466 34.0043 35.9261 25.4657Z" fill="#7F57F1"/>
</svg>
