<svg width="15" height="19" viewBox="0 0 15 19" fill="none" xmlns="http://www.w3.org/2000/svg">
<path fill-rule="evenodd" clip-rule="evenodd" d="M7.50016 0.666626C5.19898 0.666626 3.3335 2.53211 3.3335 4.83329C3.3335 7.13448 5.19898 8.99996 7.50016 8.99996C9.80135 8.99996 11.6668 7.13448 11.6668 4.83329C11.6668 2.53211 9.80135 0.666626 7.50016 0.666626ZM5.00016 4.83329C5.00016 3.45258 6.11945 2.33329 7.50016 2.33329C8.88087 2.33329 10.0002 3.45258 10.0002 4.83329C10.0002 6.214 8.88087 7.33329 7.50016 7.33329C6.11945 7.33329 5.00016 6.214 5.00016 4.83329Z" fill="#101928"/>
<path fill-rule="evenodd" clip-rule="evenodd" d="M7.50016 18.1666C6.21641 18.1666 4.35834 17.8751 2.96302 17.2644C2.27802 16.9646 1.58137 16.5356 1.17662 15.9145C0.96376 15.5878 0.829191 15.203 0.833601 14.7735C0.837972 14.3478 0.978029 13.94 1.21343 13.5606C2.35459 11.7213 4.68915 9.83329 7.50016 9.83329C10.3112 9.83329 12.6457 11.7213 13.7869 13.5606C14.0223 13.94 14.1624 14.3478 14.1667 14.7735C14.1711 15.2031 14.0366 15.5878 13.8237 15.9145C13.419 16.5356 12.7223 16.9646 12.0373 17.2644C10.642 17.8751 8.78391 18.1666 7.50016 18.1666ZM2.62966 14.4393C2.51993 14.6162 2.5008 14.7297 2.50018 14.7906C2.4996 14.8475 2.51422 14.9144 2.57297 15.0045C2.71145 15.217 3.04772 15.4822 3.63127 15.7376C4.77303 16.2373 6.39453 16.5 7.50016 16.5C8.60579 16.5 10.2273 16.2373 11.3691 15.7376C11.9526 15.4822 12.2889 15.217 12.4274 15.0045C12.4861 14.9144 12.5007 14.8475 12.5001 14.7906C12.4995 14.7297 12.4804 14.6162 12.3707 14.4393C11.4355 12.9321 9.57044 11.5 7.50016 11.5C5.42988 11.5 3.56478 12.9321 2.62966 14.4393Z" fill="#101928"/>
</svg>
